<svg xmlns="http://www.w3.org/2000/svg" viewBox="0 0 81 56"><defs><style>.cls-1,.cls-2{fill:none;stroke:#000;stroke-miterlimit:10;}.cls-1{stroke-width:5px;}.cls-2{stroke-width:3px;}</style></defs><g id="Layer_2" data-name="Layer 2"><g id="Atencion"><path class="cls-1" d="M43.28,19.28q.31-.48.66-.93A20.89,20.89,0,0,0,23.5,2.5,20.75,20.75,0,0,0,2.5,23a20.75,20.75,0,0,0,21,20.5,21.15,21.15,0,0,0,16.32-7.61c0-.28-.09-.57-.13-.85"/><path class="cls-1" d="M39.82,35.89h0c1.66,10,9.62,17.6,19.18,17.6,10.77,0,19.5-9.63,19.5-21.5S69.77,10.5,59,10.5a18.84,18.84,0,0,0-15,7.82v0"/><path class="cls-2" d="M11.5,24.5a13.94,13.94,0,0,0,6,8c.48.29,5.95,3.5,12,1a13.42,13.42,0,0,0,6-5"/><ellipse class="cls-2" cx="19" cy="17" rx="0.5" ry="3.5"/><ellipse class="cls-2" cx="31" cy="18.5" rx="0.5" ry="4"/><path class="cls-2" d="M46.5,24.5a28.1,28.1,0,0,0,6,5,15.42,15.42,0,0,0,4,2c4.36,1.29,8.27-.3,10-1a19.31,19.31,0,0,0,5-3"/><ellipse class="cls-2" cx="53.5" cy="35" rx="1" ry="3.5"/><ellipse class="cls-2" cx="66.5" cy="35" rx="1" ry="3.5"/></g></g></svg>