<svg xmlns="http://www.w3.org/2000/svg" viewBox="0 0 77.43 65.52"><defs><style>.cls-1{fill:none;stroke:#000;stroke-miterlimit:10;stroke-width:5px;}</style></defs><g id="Layer_2" data-name="Layer 2"><g id="Patito"><path class="cls-1" d="M19.5,4.53c.34-.19,6.92-3.73,13-1,4.54,2,3.43,5.16,8,8,5,3.09,12,3,17,1,4.16-1.62,5-3.72,9-4,.56,0,6.45-.37,8,3a5.76,5.76,0,0,1-1,6c-.7.66-1.61.94-2,2a3.27,3.27,0,0,0,0,2c.75,2.77,2.69,14.32,2,20-.79,6.58-5.77,11-8,13-5,4.45-10.15,5.55-17,7-5,1.07-13.31,2.73-23,0-7.3-2.06-10.53-5.25-12-7s-3.63-4.34-3-7c.45-1.88,2-2.59,3-6,.63-2.19.22-2.79,0-3-.54-.54-1.41-.21-3,0-1.8.23-5.35.69-7-1a4.42,4.42,0,0,1-1-3,7.64,7.64,0,0,1,2-5c3-3.78,6.62-3.59,7-6,.18-1.11-.55-1.29-1-3-1-3.93,1.56-7.83,3-10A17,17,0,0,1,19.5,4.53Z"/><path class="cls-1" d="M14,39C16.47,38,21.07,34,21,31.3c-.08-3.63-3.93-5.66-5-6.23a10,10,0,0,0-3-1"/><path class="cls-1" d="M34,27a6.27,6.27,0,0,0-2,3c-.84,3,1.1,5.73,2,7a14,14,0,0,0,3,3c5.37,3.68,18.55,2.28,23-6,2-3.73,2.58-9.47,0-12-.87-.85-2.91-1.57-7-3-2.47-.87-4.42-1.4-5-3a3.3,3.3,0,0,1,0-2"/><ellipse cx="18.25" cy="17.78" rx="1.25" ry="2.75"/><ellipse cx="25" cy="21.03" rx="1.5" ry="2.5"/><ellipse cx="39" cy="21.53" rx="4" ry="7.5" transform="translate(3.94 49.01) rotate(-66.98)"/><path d="M5.5,13.53,7.66,9.21A2,2,0,0,0,5.47,6.34h0A2,2,0,0,0,4.06,7.41L3,9.61a2,2,0,0,0,.1,2C3.83,12.79,5.1,14.23,5.5,13.53Z"/></g></g></svg>