<svg xmlns="http://www.w3.org/2000/svg" viewBox="0 0 55.33 67.41"><g id="Layer_2" data-name="Layer 2"><g id="Comida"><path id="Tenedor" d="M.33,5.61c-1,7,.29,14.35,3,22a28.75,28.75,0,0,0,7,8c-.27,2.68-.2,11.26,0,9,.25-2.68-8.72,20.27,4,22,5.56.26,10.45-.49,11-10a35,35,0,0,0-4-13c-.44-2.86.12-6.75,2-12a13.09,13.09,0,0,0,5-10s0-16-2-19-5,1-5,1a39.32,39.32,0,0,0,0,11c-1.26,4.28-2.59,4.47-4,0l-.78-11c-2.06-3-3.76-2.66-5.22,0v11c-1.11,2-2.12,2.17-3,0L6.5,3.61C3.69,1.4,1.49,1.52.33,5.61Z"/><path id="Cuchillo" d="M54.33,6.61l1,55c-.66,3.19-2.64,5.38-7.08,5.68-2.68.7-5.92-1.68-6.92-4.68s3.37-14.38,0-17a10,10,0,0,1-6-4c-1-8.62.42-19.3,3-31C42.33-2.39,50.77-3.1,54.33,6.61Z"/></g></g></svg>