<svg xmlns="http://www.w3.org/2000/svg" viewBox="0 0 74.16 64.47"><defs><style>.cls-1{fill:none;stroke:#000;stroke-miterlimit:10;stroke-width:4px;}</style></defs><g id="Layer_2" data-name="Layer 2"><g id="Juego"><path d="M15,48c-.46.55-.84,1.79-4,1-4-1-8.12,2.24-7,8l5,6c6.23,3.57,11.21.27,9-6l1-1L42,43c14.37-7.51,24-13,30-23S71,3,57,10,15,48,15,48Z"/><ellipse class="cls-1" cx="15.5" cy="16" rx="13.5" ry="14"/><path d="M20,9c-.72-.45-2.54.52-3,2-.38,1.24.19,2.85,1,3s1.66-1.2,2-2C20.41,11,20.66,9.41,20,9Z"/><path d="M14,10a2.2,2.2,0,0,0-3,0c-1.1,1.14-.06,3.83,1,4,.77.13,1.66-1.06,2-2C14.14,11.6,14.49,10.64,14,10Z"/><path d="M12,16c-1-.17-2.55,1.73-2,3a1.81,1.81,0,0,0,2,1,1.72,1.72,0,0,0,1-1C13.49,17.82,12.82,16.14,12,16Z"/><path d="M18,16a2.13,2.13,0,0,0-2,2,2.38,2.38,0,0,0,3,2,1.8,1.8,0,0,0,1-1A2.38,2.38,0,0,0,18,16Z"/></g></g></svg>