<svg xmlns="http://www.w3.org/2000/svg" viewBox="0 0 72.37 67"><g id="Layer_2" data-name="Layer 2"><g id="Bombilla"><path d="M29.37,67H47c4.83-.57,5.21-2.07,0-4.74L28.37,62Q18.2,66.17,29.37,67Z"/><path d="M27.37,59c-5-1,0-3,0-3H45.86c4.48,1.34,4.65,1.66.51,3C46.37,59,32.37,60,27.37,59Z"/><path d="M25.14,51.66c5.42,1.79,8.9,1.46,5.23-1.66-5-3.44-7.94-7.52-8-15-.12-4.88.58-7.53,4-10,4-1.53,4-1,7,2,.24-2.95,1.84-3.87,4-4,4.26-1,7.83.68,11,4,1.21,4.38,1.3,9.91,1,15.87a12.3,12.3,0,0,1-5,7.13c-1.21,1.63.06,2.21,4,1.66,5.1-4.82,7.16-12.63,8-21.66.28-7-1.68-12.36-6-16-4.16-3.49-9.65-4.53-16-4-12.38,1.51-17,8-19,12s-2.25,13.5,0,19.19C17.54,46.06,20.69,49.68,25.14,51.66Z"/><path d="M37.25,50.26c8.12-5,8.25-11.5,7.12-18.26-.76-2.36-2-3.78-3.56-4.34-2.55-.78-3.31.05-2.44,2.34,2.06,1.6,2.92,3.87,2.44,6.87-.66,1.32-2.56,2.7-5.44,4.13a8.07,8.07,0,0,1-6-6c.31-2.15,1-3.48,2-4,.25-2.78-.69-3.54-3-2-3.61,4.54-2.58,8.7,0,12.75C31.5,45.91,34.45,48.64,37.25,50.26Z"/><ellipse cx="34.87" cy="33.5" rx="2.5" ry="3.5"/><path d="M68.37,52l-6.32,5.72L57.37,49c-1-2-.06-2.67,3-2Z"/><path d="M72.37,32v8l-10-2c-2.73-1.32-3.33-2.56,0-3.64Z"/><path d="M65.37,11l4,8-9,2c-2,.22-2.67-.74-2-3Z"/><path d="M54.37,1a11.49,11.49,0,0,1,5.72,3.22C59.56,7.31,55.37,12,53.37,12s-1-9-1-9C52.7,1.63,53.37,1,54.37,1Z"/><path d="M38.3,1.49,35.37,6a1.18,1.18,0,0,1-2,0L31.06,1.4a.93.93,0,0,1,.8-1.4h5.67A.94.94,0,0,1,38.3,1.49Z"/><path d="M17.37,1a14,14,0,0,0-6,5,14,14,0,0,0,6,4c2.34,1.17,3.18.65,3-1C19.65,6.75,18.66,4.1,17.37,1Z"/><path d="M4.37,13,10,17.66A.78.78,0,0,1,9.47,19H1.58C1.9,16.23,2.82,14.23,4.37,13Z"/><path d="M1.58,38.82a20,20,0,0,0,8.06-5.3A1.15,1.15,0,0,0,9,31.63a43.38,43.38,0,0,0-9-.32A18.3,18.3,0,0,0,1.58,38.82Z"/><path d="M5,51.7A23.54,23.54,0,0,1,13.37,48c.71-.36,1.28.25,1,1,.22,2-1.72,4.47-3.49,7A16,16,0,0,1,5,51.7Z"/></g></g></svg>