<svg xmlns="http://www.w3.org/2000/svg" viewBox="0 0 78.74 65.27"><g id="Layer_2" data-name="Layer 2"><g id="Jeringa"><path d="M61.74,1.66a7.79,7.79,0,0,0-8-1c-1.14.75-2.32,1.8-2,3l19,30c4.56,6.61,6.75,4.69,8-2A134.5,134.5,0,0,0,61.74,1.66Z"/><path d="M51.74,11.66c-1.09-1.14-2.42-1-3.92,0a6,6,0,0,0-1.08,5,133.87,133.87,0,0,0,11,18c4.73,3.35,6.66,1.72,5-4A65.75,65.75,0,0,0,51.74,11.66Z"/><path d="M36.74,10.66C44.09,17.56,51.19,32.48,59,47.17a1.77,1.77,0,0,1-.65,2.36L55.91,51a2,2,0,0,1-2.25-.12L51.72,49.4a1.73,1.73,0,0,0-2,0C39.61,56.11,30.39,62,21.47,65.11a2.77,2.77,0,0,1-2.92-.66l-6.76-6.86a1.75,1.75,0,0,0-2.18-.11L3.74,61.66c-3.6,1-4.61,0-3-3l6.17-7a2.16,2.16,0,0,0,.42-2.15l-3-8.57a1.83,1.83,0,0,1,.41-2.17c10-9.16,19.6-17.08,27.34-19.87a1.91,1.91,0,0,0,.35-2.76L30.74,14a1.92,1.92,0,0,1,.18-2.5l2.82-1.83C34.39,9,36.08,10,36.74,10.66ZM34.88,23c-4.33,1.64-8.47,5.07-12.44,9.84a1.94,1.94,0,0,0-.35,1.89C24.32,41,28.54,46.51,33.67,51.62a2.06,2.06,0,0,0,2.41.36,81,81,0,0,0,11.65-7.53,1.91,1.91,0,0,0,.68-2c-2.53-9.1-6.19-16.1-11.86-19.33A2,2,0,0,0,34.88,23Z"/></g></g></svg>