<svg xmlns="http://www.w3.org/2000/svg" viewBox="0 0 78.75 59.64"><defs><style>.cls-1{fill:none;stroke:#000;stroke-miterlimit:10;stroke-width:5px;}</style></defs><g id="Layer_2" data-name="Layer 2"><g id="Bascula"><path class="cls-1" d="M7.67,13.06c20.44-14,41.15-14.13,64,0,4.56,3.82,5.31,10,4,16-2.87,8.61-4.5,16.64-9,24-1.43,3.55-3.69,4.37-7,4-13.51-5.47-26-4.76-36-1-4.4,1.36-7.71.63-10-2a119.46,119.46,0,0,1-11-29C2,19.85,3.28,15.35,7.67,13.06Z"/><path d="M30.17,47.56l2-23.68a.78.78,0,0,1,1.53-.12l6.44,22.8Z"/><line class="cls-1" x1="11.17" y1="19.56" x2="18.17" y2="34.56"/><line class="cls-1" x1="24.67" y1="15.06" x2="27.67" y2="27.06"/><line class="cls-1" x1="40.67" y1="9.06" x2="40.67" y2="29.06"/><line class="cls-1" x1="56.67" y1="16.06" x2="50.67" y2="27.06"/><line class="cls-1" x1="67.67" y1="20.06" x2="58.67" y2="34.06"/></g></g></svg>